<svg width="111" height="201" viewBox="0 0 111 201" fill="none" xmlns="http://www.w3.org/2000/svg">
<path d="M92.2016 200.249C89.8535 200.256 87.5335 199.785 85.4121 198.871C83.2906 197.956 81.4215 196.621 79.9422 194.964L4.02858 109.258C1.71688 106.702 0.453125 103.496 0.453125 100.187C0.453125 96.8784 1.71688 93.6724 4.02858 91.1165L82.6142 5.41026C85.282 2.49316 89.1155 0.658693 93.2716 0.310444C97.4276 -0.0378047 101.566 1.12868 104.775 3.55329C107.985 5.9779 110.003 9.46202 110.387 13.2392C110.77 17.0163 109.486 20.7771 106.819 23.6942L36.563 100.258L104.461 176.823C106.383 178.919 107.604 181.473 107.979 184.18C108.354 186.888 107.868 189.636 106.579 192.101C105.289 194.565 103.25 196.642 100.702 198.086C98.1538 199.53 95.2041 200.281 92.2016 200.249Z" fill="black"/>
</svg>