<svg width="26" height="26" viewBox="0 0 26 26" fill="none" xmlns="http://www.w3.org/2000/svg">
<path opacity="0.5" d="M22.3284 8.05299C22.3204 7.3277 22.1876 6.6092 21.9356 5.92904C21.7525 5.43207 21.4603 4.98249 21.0804 4.61341C20.7113 4.23388 20.2617 3.94199 19.7648 3.75924C19.0845 3.50761 18.3661 3.37443 17.6409 3.36549C16.4346 3.31133 16.0731 3.29883 13.02 3.29883C9.96794 3.29883 9.60439 3.30924 8.39919 3.36549C7.6739 3.3734 6.95539 3.50625 6.27523 3.7582C5.7781 3.941 5.32846 4.23328 4.9596 4.61341C4.58068 4.98346 4.2889 5.43323 4.10544 5.93008C3.85396 6.61005 3.72079 7.32807 3.71169 8.05299C3.65752 9.26029 3.64502 9.62174 3.64502 12.6749C3.64502 15.728 3.65544 16.0905 3.71169 17.2957C3.71992 18.0211 3.85312 18.7396 4.10544 19.4197C4.28773 19.9155 4.58044 20.3655 4.96064 20.7332C5.32984 21.1132 5.77936 21.4057 6.27627 21.5895C6.95544 21.8415 7.67419 21.9749 8.39919 21.9822C9.60439 22.0384 9.96794 22.0488 13.02 22.0488C16.0721 22.0488 16.4367 22.0384 17.6409 21.9822C18.3661 21.9743 19.0846 21.8414 19.7648 21.5895C20.2581 21.3994 20.7061 21.1081 21.0799 20.7344C21.4538 20.3607 21.7453 19.9128 21.9356 19.4197C22.1871 18.739 22.3199 18.0202 22.3284 17.2947C22.3846 16.0905 22.395 15.728 22.395 12.6738C22.395 9.61966 22.3846 9.25924 22.3284 8.05299Z" fill="white"/>
<path d="M19.0543 8.10913C18.9257 7.77532 18.7285 7.47217 18.4755 7.2192C18.2225 6.96623 17.9194 6.76906 17.5856 6.64038C17.1251 6.47017 16.6389 6.37998 16.1481 6.37371C15.3314 6.33621 15.0856 6.32788 13.02 6.32788C10.9543 6.32788 10.7095 6.33621 9.89495 6.37371C9.40408 6.37898 8.91779 6.46884 8.45745 6.63934C7.78141 6.89976 7.24912 7.43309 6.9887 8.10809C6.81787 8.56955 6.72829 9.05601 6.72204 9.54559C6.68454 10.3623 6.67725 10.607 6.67725 12.6737C6.67725 14.7404 6.68454 14.9862 6.72204 15.8018C6.72725 16.2925 6.81787 16.7789 6.98766 17.2393C7.11639 17.5731 7.31359 17.8762 7.56655 18.1292C7.81951 18.3822 8.12263 18.5794 8.45641 18.7081C8.91787 18.8779 9.40433 18.9685 9.89391 18.9737C10.7095 19.0112 10.9543 19.0185 13.021 19.0185C15.0877 19.0185 15.3335 19.0112 16.1491 18.9737C16.64 18.968 17.1263 18.8778 17.5866 18.7071C17.9204 18.5783 18.2235 18.3811 18.4765 18.1282C18.7294 17.8752 18.9266 17.5721 19.0554 17.2383C19.2262 16.7789 19.3158 16.2925 19.322 15.8008C19.3595 14.9852 19.3668 14.7404 19.3668 12.6737C19.3668 10.607 19.3595 10.3623 19.322 9.54663C19.3164 9.05571 19.2262 8.56943 19.0554 8.10913H19.0543ZM13.02 16.6477C12.4981 16.6477 11.9813 16.5449 11.4992 16.3452C11.017 16.1455 10.579 15.8527 10.2099 15.4837C9.84092 15.1147 9.54821 14.6766 9.3485 14.1945C9.14879 13.7123 9.046 13.1956 9.046 12.6737C9.046 12.1518 9.14879 11.6351 9.3485 11.1529C9.54821 10.6708 9.84092 10.2327 10.2099 9.8637C10.579 9.49469 11.017 9.20197 11.4992 9.00226C11.9813 8.80255 12.4981 8.69976 13.02 8.69976C14.0739 8.69976 15.0847 9.11844 15.83 9.8637C16.5752 10.609 16.9939 11.6198 16.9939 12.6737C16.9939 13.7277 16.5752 14.7385 15.83 15.4837C15.0847 16.229 14.0739 16.6477 13.02 16.6477ZM17.1512 9.47059C16.9103 9.46252 16.6819 9.36115 16.5144 9.18787C16.3468 9.0146 16.2531 8.78299 16.2531 8.54194C16.2531 8.3009 16.3468 8.06929 16.5144 7.89602C16.6819 7.72274 16.9103 7.62137 17.1512 7.6133H17.1522C17.3932 7.62066 17.6219 7.72139 17.7899 7.89419C17.958 8.067 18.0523 8.29836 18.053 8.53943C18.0537 8.78049 17.9607 9.01238 17.7936 9.18612C17.6264 9.35987 17.3984 9.46187 17.1575 9.47059H17.1512Z" fill="white"/>
<path d="M13.0201 10.0935C12.5098 10.0935 12.011 10.2448 11.5867 10.5283C11.1624 10.8119 10.8316 11.2148 10.6363 11.6863C10.4411 12.1578 10.39 12.6766 10.4895 13.1771C10.5891 13.6776 10.8348 14.1374 11.1957 14.4982C11.5565 14.859 12.0163 15.1048 12.5168 15.2043C13.0173 15.3039 13.5361 15.2528 14.0076 15.0575C14.479 14.8622 14.882 14.5315 15.1655 14.1072C15.449 13.6829 15.6004 13.184 15.6004 12.6737C15.6004 11.9896 15.3287 11.3335 14.845 10.8496C14.3613 10.3657 13.7053 10.0938 13.0212 10.0935H13.0201Z" fill="white"/>
<path d="M23.3639 7.53833C23.3546 6.73293 23.2066 5.93516 22.9264 5.18C22.7227 4.62788 22.3977 4.12847 21.9754 3.71854C21.5655 3.29618 21.0661 2.97118 20.5139 2.7675C19.7582 2.48797 18.9602 2.33999 18.1546 2.33C16.8139 2.27166 16.4129 2.25708 13.0202 2.25708C9.62956 2.25708 9.22643 2.26958 7.88685 2.33C7.08115 2.33977 6.28311 2.48775 5.52747 2.7675C4.97505 2.97067 4.47552 3.29574 4.06602 3.71854C3.64448 4.12908 3.31961 4.6283 3.11497 5.18C2.83549 5.9357 2.68751 6.7337 2.67747 7.53937C2.6181 8.88 2.60352 9.28208 2.60352 12.6748C2.60352 16.0675 2.61602 16.4696 2.67747 17.8092C2.68789 18.6144 2.83477 19.4133 3.11497 20.1685C3.3181 20.7206 3.6431 21.2206 4.06497 21.629C4.47516 22.0509 4.97449 22.3759 5.52643 22.58C6.28191 22.8603 7.08005 23.0083 7.88581 23.0175C9.22539 23.079 9.62852 23.0904 13.0202 23.0904C16.4129 23.0904 16.815 23.0779 18.1556 23.0175C18.961 23.0082 19.7588 22.8602 20.5139 22.58C21.0621 22.3687 21.56 22.045 21.9755 21.6297C22.391 21.2143 22.7149 20.7166 22.9264 20.1685C23.2056 19.4123 23.3535 18.6144 23.3639 17.8092C23.4243 16.4685 23.4368 16.0654 23.4368 12.6737C23.4368 9.28104 23.4243 8.88 23.3639 7.53833ZM20.7129 15.8644C20.7006 16.5066 20.579 17.1421 20.3535 17.7435C20.1546 18.2577 19.8506 18.7246 19.4608 19.1143C19.071 19.5041 18.6041 19.8082 18.09 20.0071C17.4888 20.2322 16.8537 20.3537 16.2118 20.3665C15.3858 20.405 15.1223 20.4133 13.0202 20.4133C10.9181 20.4133 10.6556 20.404 9.82956 20.3665C9.18771 20.3537 8.55267 20.2322 7.95143 20.0071C7.4371 19.8084 6.96997 19.5044 6.57999 19.1146C6.19001 18.7248 5.8858 18.2578 5.68685 17.7435C5.46161 17.142 5.34009 16.5066 5.32747 15.8644C5.29102 15.0394 5.2806 14.7758 5.2806 12.6737C5.2806 10.5717 5.28997 10.3081 5.32747 9.48312C5.34009 8.84092 5.46161 8.2055 5.68685 7.60396C5.88574 7.08968 6.18993 6.62266 6.57992 6.23285C6.9699 5.84305 7.43707 5.53907 7.95143 5.34041C8.55265 5.11529 9.1877 4.99378 9.82956 4.98104C10.6556 4.9425 10.9202 4.93416 13.0212 4.93416C15.1223 4.93416 15.3858 4.94354 16.2118 4.98104C16.8541 4.9935 17.4895 5.11502 18.091 5.34041C18.6049 5.53942 19.0716 5.84355 19.4612 6.23333C19.8508 6.62311 20.1547 7.08995 20.3535 7.60396C20.5796 8.20604 20.7004 8.84042 20.7129 9.48312C20.7504 10.3081 20.7598 10.5717 20.7598 12.6737C20.7598 14.7758 20.7504 15.0383 20.7129 15.8644Z" fill="white"/>
</svg>
