<svg width="43" height="43" viewBox="0 0 43 43" fill="none" xmlns="http://www.w3.org/2000/svg">
<path d="M21.875 0.75C17.6969 0.75 13.6126 1.98896 10.1386 4.3102C6.6646 6.63145 3.95695 9.93072 2.35805 13.7908C0.759153 17.6509 0.340808 21.8984 1.15592 25.9963C1.97103 30.0941 3.98299 33.8582 6.93738 36.8126C9.89176 39.767 13.6559 41.779 17.7537 42.5941C21.8516 43.4092 26.0991 42.9908 29.9592 41.3919C33.8193 39.793 37.1185 37.0854 39.4398 33.6114C41.761 30.1374 43 26.0531 43 21.875C43 19.1008 42.4536 16.3538 41.392 13.7908C40.3303 11.2278 38.7743 8.899 36.8126 6.93737C34.851 4.97573 32.5222 3.41967 29.9592 2.35804C27.3962 1.29641 24.6492 0.75 21.875 0.75ZM23.9875 30.325C23.9875 30.8853 23.7649 31.4226 23.3688 31.8188C22.9726 32.2149 22.4353 32.4375 21.875 32.4375C21.3147 32.4375 20.7774 32.2149 20.3812 31.8188C19.9851 31.4226 19.7625 30.8853 19.7625 30.325V19.7625C19.7625 19.2022 19.9851 18.6649 20.3812 18.2687C20.7774 17.8726 21.3147 17.65 21.875 17.65C22.4353 17.65 22.9726 17.8726 23.3688 18.2687C23.7649 18.6649 23.9875 19.2022 23.9875 19.7625V30.325ZM21.875 15.5375C21.4572 15.5375 21.0488 15.4136 20.7014 15.1815C20.354 14.9494 20.0832 14.6194 19.9233 14.2334C19.7634 13.8474 19.7216 13.4227 19.8031 13.0129C19.8846 12.6031 20.0858 12.2267 20.3812 11.9312C20.6767 11.6358 21.0531 11.4346 21.4629 11.3531C21.8727 11.2716 22.2974 11.3134 22.6834 11.4733C23.0694 11.6332 23.3994 11.904 23.6315 12.2514C23.8636 12.5988 23.9875 13.0072 23.9875 13.425C23.9875 13.9853 23.7649 14.5226 23.3688 14.9188C22.9726 15.3149 22.4353 15.5375 21.875 15.5375Z" fill="#0085FF"/>
</svg>
