        <svg width="244" height="236" viewBox="0 0 244 236" fill="none" xmlns="http://www.w3.org/2000/svg">
            <path d="M23.1022 7.30541C36.1465 0.277748 52.7803 -1.3689 68.681 2.51249C76.4251 4.39437 83.0389 9.23141 87.0102 15.8915L100.727 38.9152C105.615 47.1234 107.027 56.83 104.669 66.015C102.31 75.1999 96.3628 83.1557 88.0642 88.2265L75.9974 95.607C71.0027 98.6504 69.1697 103.311 70.3153 107.001C74.4089 120.204 83.4666 134.847 93.4255 144.874C96.3887 147.873 101.826 148.579 107.142 145.595L113.817 141.846C118.197 139.388 123.041 137.795 128.067 137.159C133.093 136.522 138.201 136.856 143.092 138.14C147.983 139.423 152.559 141.632 156.554 144.636C160.549 147.639 163.883 151.379 166.361 155.636L178.657 176.734C182.674 183.644 183.331 191.892 180.49 199.317C174.823 214.063 163.902 225.957 150.475 231.911C136.835 237.954 120.874 237.704 106.424 228.427C83.5429 213.754 55.9727 189.054 30.999 147.859C5.70462 106.104 -0.664806 70.5691 0.0530907 44.0757C0.511323 27.124 9.82871 14.4507 23.1022 7.30541V7.30541ZM163.504 1.71857C161.734 0.771045 159.645 0.539235 157.697 1.07413C155.75 1.60903 154.102 2.86682 153.118 4.5708C152.133 6.27478 151.893 8.28538 152.448 10.1603C153.004 12.0352 154.311 13.6208 156.081 14.5683L161.946 17.7146C180.27 27.5122 195.856 41.4344 207.374 58.2914C218.891 75.1483 225.997 94.4387 228.085 114.514L228.573 119.145C228.631 120.137 228.897 121.106 229.354 121.996C229.812 122.886 230.452 123.677 231.236 124.322C232.02 124.967 232.932 125.453 233.916 125.749C234.9 126.046 235.937 126.148 236.963 126.048C237.989 125.949 238.984 125.651 239.887 125.171C240.79 124.692 241.583 124.041 242.218 123.259C242.853 122.476 243.316 121.578 243.581 120.618C243.845 119.659 243.905 118.657 243.756 117.675L243.283 113.059C240.952 90.6169 233.01 69.0523 220.136 50.2083C207.262 31.3643 189.838 15.8014 169.355 4.85014L163.504 1.71857V1.71857ZM145.603 41.1205C146.646 39.4499 148.336 38.2466 150.301 37.7752C152.266 37.3037 154.345 37.6027 156.081 38.6065L157.975 39.6944C170.305 46.8096 180.882 56.4171 188.975 67.8528C197.069 79.2885 202.486 92.2795 204.852 105.928L205.524 109.853C205.722 110.819 205.717 111.813 205.509 112.776C205.3 113.739 204.893 114.653 204.311 115.462C203.729 116.271 202.985 116.959 202.121 117.486C201.258 118.013 200.293 118.368 199.285 118.529C198.276 118.691 197.245 118.655 196.25 118.426C195.256 118.196 194.32 117.777 193.498 117.193C192.675 116.609 191.983 115.871 191.461 115.025C190.94 114.178 190.601 113.24 190.464 112.265L189.776 108.354C187.78 96.8047 183.201 85.8106 176.358 76.1316C169.514 66.4525 160.569 58.3193 150.139 52.2942L148.245 51.2063C147.385 50.7102 146.634 50.0558 146.036 49.2804C145.438 48.505 145.005 47.6239 144.761 46.6873C144.517 45.7507 144.467 44.777 144.614 43.8218C144.761 42.8667 145.102 41.9488 145.618 41.1205H145.603Z" fill="white"/>
            </svg>