 <svg width="374" height="348" viewBox="0 0 374 348" fill="none" xmlns="http://www.w3.org/2000/svg">
            <path d="M41.5556 348H332.444C343.466 348 354.035 344.333 361.829 337.807C369.622 331.281 374 322.429 374 313.199V121.795C374 117.18 371.811 112.754 367.914 109.491C364.018 106.228 358.733 104.394 353.222 104.394H290.889V90.8743C290.889 45.4766 251.349 4.82929 197.389 0.426987C182.946 -0.775168 168.362 0.567946 154.576 4.36992C140.79 8.1719 128.107 14.3485 117.343 22.5024C106.579 30.6564 97.9721 40.607 92.0765 51.7141C86.1809 62.8213 83.1269 74.8389 83.1111 86.994V104.394H20.7778C15.2672 104.394 9.98226 106.228 6.08567 109.491C2.18908 112.754 0 117.18 0 121.795V313.199C0 322.429 4.37816 331.281 12.1713 337.807C19.9645 344.333 30.5343 348 41.5556 348ZM290.889 139.195V173.996H249.333V139.195H290.889ZM124.667 86.994C124.667 58.2137 152.634 34.7928 187 34.7928C221.366 34.7928 249.333 58.2137 249.333 86.994V104.394H124.667V86.994ZM83.1111 139.195H124.667V173.996H83.1111V139.195Z" fill="white"/>
 </svg>