<svg id="Layer_2" data-name="Layer 2" xmlns="http://www.w3.org/2000/svg" xmlns:xlink="http://www.w3.org/1999/xlink" viewBox="0 0 139.63 61.46"><defs><style>.cls-1{fill:#d4348c;}.cls-2{fill:#fff;stroke:#e8e5e2;stroke-miterlimit:10;}</style></defs><path class="cls-1" d="M30.32,31s1.27,3,2.68,0V29.32s3.38-14.66,16.35-15.5c0,0,9.3,0,6.34,14.09,0,0-4.51,16.35-22.12,20.72S20.46,32.42,22.15,31.22c0,0,4.09-6.41,7.75-8.1l3.38-2.26s-.14-2.39-3-.7-8.17,6.91-8.17,6.91L17.5,34.25S13.27,44.68,19.33,50s15.93,2.53,15.93,2.53,8.17-1.12,13-7A43.94,43.94,0,0,0,58.79,29.74a21.48,21.48,0,0,0,1-12.68S55.37,4.72,41,13.36L35.19,19s-3.32,2.72-5,10.47Z" transform="translate(-16.07 -10.29)"/><path class="cls-1" d="M146.87,38.7l-3.8,2.81L141,43.92l-2.11,1.4s-2.68-.28-1.27-2.54l1-5.05s-2-2.84-6.2-.73A35,35,0,0,0,125,42l-1,1.16-.14-2.36.7-3s3.39-4.06,4.94-6.4a45.87,45.87,0,0,0,3.09-4.94,40.63,40.63,0,0,0,3.06-10.06,1,1,0,0,0,0-.39.65.65,0,0,0-.21-.33,1.76,1.76,0,0,0-1.38-.41,3.62,3.62,0,0,0-1.38.52c-2,1.16-3.08,3.21-4.28,5.11a71.3,71.3,0,0,0-5.07,8.58,48.53,48.53,0,0,0-1.89,5.92L120,39,114,44.33l-1.13,1.13-2.12.85-1-.85.56-2.68,1.27-2.11,2.4-1,2-1.13,1-2.11-.42-2.11-2.25-1.62h-4.23l-4.09.77S97.83,37,94.73,42c0,0-11.84,9.66-7.75,0l2.39-3.46s2.68-3.52-2.67-3.1H85s-1.22-6.2-5.17-.42l-.28,2.26-.14,1L73,42.92l1.4-2.82s1.27-5.91-6.06-4.65l-4.65,3.1,4-5.07s.85-3.52-3.24-1.41a6.41,6.41,0,0,0-1.29,1.36,40.59,40.59,0,0,0-2.8,3.48,60.29,60.29,0,0,0-5,8.51,61.11,61.11,0,0,0-5.58,18.84c-.07.52-.13,1-.18,1.57A2.48,2.48,0,0,0,53,65.35a7.21,7.21,0,0,0,1.36-3.53,54.46,54.46,0,0,1,3.83-13,20.67,20.67,0,0,1,9-9.8,4.62,4.62,0,0,1,2.07-.59A1.92,1.92,0,0,1,71,39.51a2.33,2.33,0,0,1-.11,1.7C69.53,44.79,66,45,62.74,44.76l-1.27-.15s-3.52,2.26,0,4.94c0,0,3,2,6.9-1.41l3.11-1.83,4.36-1.7.85-1.12,5.07-4H83v1L81.62,42s-1.13,4,0,5.7,4.65,2.41,4.65,2.41,3.81-.57,4.65-1.42A14.65,14.65,0,0,1,93.18,47l.7.28s2.12,6.2,11.42-.7c0,0,2.53,8.59,14.23-3v3.94l.57.85a2.21,2.21,0,0,0,3.1-.85,21.34,21.34,0,0,1,3.8-3.8L131.23,41l2-.7.71.42-.71,2.53-.42,2.4L133.2,47a6.18,6.18,0,0,0,8.32,0c4.51-3.66,6.2-5,6.2-5l1.69-1.91S150.68,35.88,146.87,38.7Zm-22.49-5.55a1.22,1.22,0,0,1,.46-.76s.78-2.19.8-2.24-.77,2-.75,1.9,0-.09,0-.13a.63.63,0,0,1,0-.47,6.18,6.18,0,0,1,.39-.77c1.1-2.19,2.21-4.37,3.42-6.5.6-1.06.89-2.28,1.52-3.32a11.06,11.06,0,0,1,1.32-1.66,1.37,1.37,0,0,1,.41-.59l.21-.13c.09-.11.2-.23.29-.35s.3-.26.39-.2c.13-.13.37-.32.43-.05a1.48,1.48,0,0,1,0,.19.21.21,0,0,1,0,.12c.07.48.14,1.32.2,1.81,0,.11,0-.12,0,0l0,.2a16.42,16.42,0,0,1-1,1.89A12.07,12.07,0,0,0,133,21a6.27,6.27,0,0,1-.47,1.12,17.2,17.2,0,0,1-1.8,2.76s0,0,0,0l-.39.66a4.14,4.14,0,0,1-.8,1.41c-.14.25-.28.5-.43.75-.43.72-.89,1.4-1.27,2.15a15.5,15.5,0,0,1-1.25,2.21,2.41,2.41,0,0,1-1.2,1l-.12.13a.56.56,0,0,1-.25.16,1.73,1.73,0,0,1-.31.22C124.4,33.75,124.35,33.35,124.38,33.15ZM65.51,47.26h-.1l0,0,0,.13a.21.21,0,0,1-.08.17.43.43,0,0,1-.2.15.75.75,0,0,1-.3.09,1.11,1.11,0,0,1-.36,0h-.33a1.48,1.48,0,0,1-.47-.06l-.19-.07,0,0-.14,0-.3,0a1,1,0,0,1-.55-.15c-.29,0-.64-.15-.64-.42s.14-.29.32-.35.49-.27.67-.27H63a1.66,1.66,0,0,1,.4,0c.22,0,.81.06.81.39h.32A1.48,1.48,0,0,1,65,47h.49c.06,0,.24,0,.24.11S65.58,47.26,65.51,47.26Zm32.2-5.85a7.35,7.35,0,0,1,2.51-2.08h0A11.36,11.36,0,0,1,104,37a21.62,21.62,0,0,1,4.83-2.06l.1,0a.76.76,0,0,1,.34,0l.64,0c0-.38,0,0,.26,0s.43-.43.64-.34h.1a9.16,9.16,0,0,1,1.17.05,2.11,2.11,0,0,1,1.45.66,2.25,2.25,0,0,1,.34,1.51c.05,0-.45.48-.4.5s0-.14,0,0c-.19.71,0,.9-.71,1a10,10,0,0,1-2.32.19h-.61c.14,0,.11,0,0,0,.06,0-.11,0-.12,0l-.16.08-.14.1s-.14.15-.12.12A5.22,5.22,0,0,0,108,40.51c0,.15,0,.58-.08.62s0,0,0,0A9.38,9.38,0,0,1,106,43a12.13,12.13,0,0,1-1.31.95l-.25.14c-1.41.77,1.23-.44-1,.59-1,.47-5.45.19-6.24-.66s-.51.81,0,0m0,0c.08,0-.08,0,0,0" transform="translate(-16.07 -10.29)"/><line class="cls-2" x1="45.84" y1="43.59" x2="130.85" y2="42.46"/><image width="900" height="200" transform="translate(44.24 42.46) scale(0.11 0.1)" xlink:href="WHITE%20ROSE.png"/></svg>