<svg id="Layer_1" data-name="Layer 1" xmlns="http://www.w3.org/2000/svg" viewBox="0 0 104.83 26.48"><defs><style>.cls-1{fill:#c43575;}</style></defs><path class="cls-1" d="M108,30.65l-2.62.61-.71-.3,3.63-9.68L106,21l-.6.4a6.26,6.26,0,0,0-8,2.12c-3.53,4.53-3.33,6.85-3.33,6.85l-3.33.81,2.93-7.76s-1.62-5.95-6.46.2-.5.1-.5.1l.5-2.42s-2.52-2-4.23,2.42-2.62,6.65-2.62,6.65l-2.72.71,3-9.68S76.43,18,74,30.15l-3.33,1.31,7-19.35S74.41,11.7,73.5,14l-6,15.52a4.92,4.92,0,0,1-5.55.81l.71-1.11,4.43-3.93s2.12-4.13-2.32-4.94c0,0-6.72,2.92-6.83,9.38l-2.24.6-.5-.6,3.42-9.08s.21-1-3-.2c0,0-6.55-2.52-10.89,6.15l-.5,2.82s-2,1.62-2.82.61l.4-1.41,2-4.94s1-4.74-3.83-2.93L38,22.29s-.81.5-.6-.71-.51-1.81-3.73-.1l-2.42,6.85S28.75,30.05,27.44,30c0,0-1.62.09,1.24-5.63L29,23.8l2.62-.61s1.91-1.21-.91-2.31l-.7-.31,2.62-6.65s-.2-.61-.71-1.81c0,0-1.51-2-3.12-.41s-5.85,8.67-5.85,8.67S8.48,19.26,6,25s5.65,7.16,5.65,7.16,6.75.3,12-8.07l.61.3L22.8,29.65s.8,4.13,8.67,1.51c0,0,1.51,1.51,2.82.1l4-6.35.51.4s-1.92,4.84,0,6.25c0,0,2.11,2.12,5.74,0A11.46,11.46,0,0,0,48.81,33s-3.13,1.51-2.62,3.73c0,0,2.82,3.43,7.66-3.43l5-1.71s3.73,2.82,9.07.1c0,0,1.41,2.52,7.06.71,0,0,2.21,1.91,5.84.2a3,3,0,0,0,2.83-.1l4.43-7.06.71.3S86,31,88.83,32.37s2.72.7,2.72.7l2.72-.6.5.1s4,2,7.06-.4c0,0,3.13,2.92,8.47-.71C110.3,31.46,110.6,30.05,108,30.65Zm-87.5-6.74a2.54,2.54,0,0,1-.93,1.39c-1.52,1-2.86,2.29-4.48,3.16s-3.64,1.34-5.15,0a.59.59,0,0,1-.17-.28c-.91-.68-.58-2.09,0-2.88a4.68,4.68,0,0,1,2.57-1.62,2.47,2.47,0,0,1,.53-.36,2.87,2.87,0,0,1,1.3-.16c.43,0,.87-.12,1.31-.16a18.62,18.62,0,0,1,3.08-.07.37.37,0,0,1,.26.14c.45,0,.9,0,1.35,0S20.55,23.65,20.48,23.91Zm6.31-4.31c-.41.65-1,1.27-1.81,1-.09,0,.05-.34.07-.38a11.59,11.59,0,0,1,1.57-2.76s0-.09.05-.14a1,1,0,0,1,.09-.33,5.07,5.07,0,0,1,.37-.64l0-.07A2.76,2.76,0,0,1,28.41,15a.53.53,0,0,1,.11-.15,1.09,1.09,0,0,1,.08-.15s.28-.38.3-.23a2.86,2.86,0,0,1-.26,1.41A12.12,12.12,0,0,1,28.09,17a.34.34,0,0,1,0,.1,1.5,1.5,0,0,1-.26.54.83.83,0,0,0-.11.17,1.11,1.11,0,0,0-.08.15l0,0,0,.05-.05.1c0,.09-.08.19-.13.28A10.46,10.46,0,0,1,26.79,19.6Zm27.26,4a4.57,4.57,0,0,1-.47,2.06,5.65,5.65,0,0,1-.91,1.32c-.22.32-.45.63-.69.92a10.05,10.05,0,0,1-1.92,1.88,3.15,3.15,0,0,1-2.12.75,1.9,1.9,0,0,1-1.2-.75c-.61-.82-.22-2,.17-2.8a8.37,8.37,0,0,1,2-2.54,12.9,12.9,0,0,1,1.48-1.17l.1-.09a3.31,3.31,0,0,1,1.77-.83l.07,0a2.08,2.08,0,0,1,.5-.07c.33-.18.73-.22.87.16h.07c.19,0,.31.19.35.35a1.23,1.23,0,0,1,0,.63A.88.88,0,0,1,54.05,23.56Zm7.48,3.37a.48.48,0,0,1-.18-.39,2.72,2.72,0,0,1,.15-.94,3.68,3.68,0,0,1,.52-1,4.37,4.37,0,0,1,.76-.79l0,0a2.12,2.12,0,0,1,.6-.48l.3-.4c.3-.35.68-.8,1.18-.83a.35.35,0,0,1,.31.06l.13.16.06.23,0,.28a3,3,0,0,1-.09.32.19.19,0,0,1,0,.08,4.26,4.26,0,0,1-.15.47c0,.06,0,.12,0,.18a5.94,5.94,0,0,1-.43.92v0h0a2.53,2.53,0,0,1-.12.23.83.83,0,0,1,0,.15,2.71,2.71,0,0,1-.4.75,2.32,2.32,0,0,1-.75.71l0,0a1.18,1.18,0,0,1-.77.29.18.18,0,0,1-.1,0l0,0-.19,0h-.07A.42.42,0,0,1,62,27h0A.5.5,0,0,1,61.53,26.93Zm41.76-.83a6.32,6.32,0,0,1-1,1.63A3.11,3.11,0,0,1,102,28l0,.06a1.25,1.25,0,0,0-.21.3l.09-.15-.12.22a1.86,1.86,0,0,1-.13.23,9,9,0,0,1-.43.81,2,2,0,0,1-.46,1.21c-.22.3-.64.8-1.06.83a2.77,2.77,0,0,0-.5.1c-.42.1-.63-.21-.61-.58l0-.13a1.4,1.4,0,0,1-.49-.86,4.72,4.72,0,0,1,.3-2.07,13.32,13.32,0,0,1,.94-2.16,13.1,13.1,0,0,1,1.25-2,4.71,4.71,0,0,1,1.65-1.52c.25-.12.67-.24.81.11,0,.08,0,.15.08.22a.48.48,0,0,1,.28.41A5.66,5.66,0,0,1,103.29,26.1ZM79.65,19.56S76,18.15,79.65,16C79.65,16,84.29,17.85,79.65,19.56Z" transform="translate(-5.48 -11.08)"/></svg>