<svg id="Layer_1" data-name="Layer 1" xmlns="http://www.w3.org/2000/svg" viewBox="0 0 115.79 47.04"><defs><style>.cls-1{fill:#afb2c3;}</style></defs><path class="cls-1" d="M60.38,21.36S64,18.31,66.75,22L66,30.65l-.53,14.74.53,7s3.32,15.13,8,.8l5-17.39,2-11,.8-4.63s2.66-3,6.24,0l-.79,5.55-.66,11.42L86,53l.8,7.17.53,2L88,63.31l2.26.53v.8S87.74,66.76,84,62.78l-2.26-6.24-.27-4.65-.4-4.38.27-4,.27-2.26.4-6.64.53-4.51V28.79l-.93,3.58-2,6.77-1.33,6.11-3,11.15-3,4.65s-4.12,4.65-8.5-.93c0,0-2.12-6.9-2.12-8.36s-.53-15-.53-15l.13-4.51L61,30.79l-1.19,3.32-3.19,12-3.45,8.5-5,6.77s-5,5-10.89,4.51l-6.11-1.73-4.12-3.58-2.39-4S22.93,50,29,47.12V45.39S24.66,47.78,26,52.56s2.12,5.84,2.12,5.84,5.18,7,15,2.92c0,0,6,.83,13.14-19,0,0,4.65-17,4.25-20.06Z" transform="translate(-24.43 -18.84)"/><path class="cls-1" d="M100.47,25s-7.83,2.26-2.79,6.9,9.29-5.18,4.65-6.11Z" transform="translate(-24.43 -18.84)"/><path class="cls-1" d="M101.16,42.58s-2.48-3.4-5.17-.23L94.9,57.21s.53,5.31,4.25,6.37a4.13,4.13,0,0,0,3.85-.93s.27-1.86-.53-1.46l-1.31.93S98.92,62.65,99,62s-.58-3.58,0-4.38V54.29l.58-3.45s.31-7.43,1.61-6.77Z" transform="translate(-24.43 -18.84)"/><path class="cls-1" d="M115.74,41s-4.91-.27-5.58,8.18c0,0-1.59,4.08,7,6.57,0,0,8.36,2.8,2.12,8a14.89,14.89,0,0,1-9.82.66s-2.26-1.19-3.32-1.86a3.48,3.48,0,0,1,0-3.72s1.73-.27,1.73.8c0,0-.83,2.93,2.79,4.12,0,0,5.84.53,6.64-2.93,0,0,1.33-3-4.78-5.58,0,0-6.37-1.46-6.9-7.83A13.21,13.21,0,0,1,111,38.75s3.32-.8,5.71.8l3.58,3a7.62,7.62,0,0,1,.8,7.33s-2.39,2-3.58-.4V44.33A6,6,0,0,0,116.42,41Z" transform="translate(-24.43 -18.84)"/><path class="cls-1" d="M134.33,41.61s-4.91-.27-5.58,8.18c0,0-1.59,4.08,7,6.57,0,0,8.36,2.8,2.12,8a14.89,14.89,0,0,1-9.82.66s-2.26-1.19-3.32-1.86a3.48,3.48,0,0,1,0-3.72s1.73-.27,1.73.8c0,0-.83,2.93,2.79,4.12,0,0,5.84.53,6.64-2.93,0,0,1.33-3-4.78-5.58,0,0-6.37-1.46-6.9-7.83a13.21,13.21,0,0,1,5.31-8.63s3.32-.8,5.71.8l3.58,3a7.62,7.62,0,0,1,.8,7.33s-2.39,2-3.58-.4V44.94A6,6,0,0,0,135,41.61Z" transform="translate(-24.43 -18.84)"/></svg>