<svg id="Layer_2" data-name="Layer 2" xmlns="http://www.w3.org/2000/svg" viewBox="0 0 96.49 30.36"><defs><style>.cls-1{fill:#304bbe;}.cls-2{fill:#b2b4c9;}</style></defs><path class="cls-1" d="M106.79,24.92l-1.49-.53s2-6.38-3-7.52S94.81,22,94.81,22l-.7,3-1.5,1.88,2.8-9.5s-2.8-.51-3.8.37a5.64,5.64,0,0,0-6.39,1.19s-2.3,2.28-2.3,4.39a6,6,0,0,0-4.4-2.61,7.45,7.45,0,0,0-5,2.23s-.8,1.7.4,2.66,1.79.18,1.79.18l1.6-2.17s1.6-.28,1.1.86a3.94,3.94,0,0,1-4.69,2.59c-2.9-.67-.8-4.86-.8-4.86s3.89-3.11,6.59-2.43,2.1-3,2.1-3h-3s-1.9-1.79,1.3-4.24.5,2.67.5,2.67,1,2,4.3.74l1-3.32s-1.09-3.15-6.29-3.5-6.49,5.16-6.49,5.16a3.67,3.67,0,0,0,2.4,3.13s-7,1.63-7.4,6.26a5.64,5.64,0,0,0,3.7,5.91S76,32.17,80.32,28l1.8-1.48.6-.35s-.3,2.9,3.19,3.9c0,0-5.39,3.37-5.39,6.33,0,0,.1,5.07,5.39,2.18s4.7-7,4.7-7l4.2-3.5s4.39,4.81,8.69-.35l2.49-.17S109,25.69,106.79,24.92Zm-17.48-1.3c-1.6,3.16-2.9,2.43-2.9,2.43a6.82,6.82,0,0,1,.8-3.44,3.65,3.65,0,0,1,2.9-2.41S90.91,20.46,89.31,23.62Zm11.49,1.82c-1.7,1.84-2.3.79-2.3.79-.8-6.21,3.2-6,3.2-6C99.4,21.78,100.8,25.44,100.8,25.44Z" transform="translate(-11.12 -9.08)"/><path class="cls-2" d="M22.59,16.3a3.52,3.52,0,0,0,5.07-1.13c2.08-3.18-1.56-4.78-1.56-4.78s-6.23-2.72-10,2.28-.78,6.59-.78,6.59l1,.57,2.73.79,2.16.69s2.25,5.57-4.11,6.13c0,0-5.85-.34-.26-3.18l2.34-.11.13-1.2s-2.08-2-6,0S11.81,28,11.81,28s6.11,4.78,12,0,0-9.09,0-9.09L20.39,18l-1.3-.8s-1.3-2.27,3.5-4.77c0,0,4.19-1.32-.13,3.3Z" transform="translate(-11.12 -9.08)"/><path class="cls-2" d="M38.76,18.8l0,0C38.73,19,38.72,19,38.76,18.8Z" transform="translate(-11.12 -9.08)"/><path class="cls-2" d="M48.15,18.27c-1.2-2.18-4.39.35-4.39.35a1.07,1.07,0,0,0,0-.84c-.2-.4-2.7,0-2.7,0l-2.27,7.83c-3.67,2.28-3.33.09-3.33.09l3.28-6.87a3,3,0,0,0,0-.9c-.1-.34-2.9,0-2.9,0l-3.59,7.16c-2.9,3.5-2.3,0-2.3,0s3.4-5.77,3-6.73-3,0-3,0c-4.8,8.92-3.1,9.18-3.1,9.18,2.4,4.54,5.1.43,5.1.43a3.85,3.85,0,0,0,5.09,1.14l-1.8,6a2.4,2.4,0,0,0,3.6.7s1.3-6.73,2.6-6.28a5.7,5.7,0,0,0,2.9,0c3.57.3,4.79-7.53,4.79-7.53A6.76,6.76,0,0,0,48.15,18.27Zm-2.83,5.92c-1,1.87-2.36,3.14-3.14,2.84s-.62-2.07.34-3.94,2.36-3.15,3.14-2.84S46.28,22.32,45.32,24.19Z" transform="translate(-11.12 -9.08)"/><path class="cls-2" d="M68.23,25.61l-2.4.7-.69-.08a12.07,12.07,0,0,1,2.49-4.72,5.48,5.48,0,0,0,1.68-3.76s-2.2-.73-2.94-.37l-.84.72-.89.08L64,15.39a2.33,2.33,0,0,0-2.6.43,5.74,5.74,0,0,0-1.6,3.5v1.31s-.7,3.94-3.7,5.77-3.69.48-3.69.48l-.3-1.35s5.29,1.49,5.49-5.64c0,0-.4-2.78-2.7-2.51,0,0-8.16,1.93-5.78,9.5s11-.83,11-.83,2.8-4.54,2.4-5,1-.18,1-.18v.88l-2.5,4s-.8,4.28,3.2,3.58,5-2.49,5-2.49S69.73,25.18,68.23,25.61ZM53.75,20.2c2-1.48,1.69,1.38,1.69,1.38s-2,2.72-2.69,1.37S53.75,20.2,53.75,20.2Z" transform="translate(-11.12 -9.08)"/></svg>