<?xml version="1.0" encoding="utf-8"?>
<!-- Generator: Adobe Illustrator 26.0.1, SVG Export Plug-In . SVG Version: 6.00 Build 0)  -->
<svg version="1.1" id="Layer_1" xmlns="http://www.w3.org/2000/svg" xmlns:xlink="http://www.w3.org/1999/xlink" x="0px" y="0px"
	 viewBox="0 0 169.92 84.72" style="enable-background:new 0 0 169.92 84.72;" xml:space="preserve">
<style type="text/css">
	.st0{fill:#AFB2C3;}
</style>
<g>
	<path class="st0" d="M44.18,21.14c0,0,3.58-3.05,6.37,0.66l-0.8,8.63l-0.53,14.74l0.53,7.04c0,0,3.32,15.13,7.97,0.8l5.04-17.39
		l1.99-11.02l0.8-4.63c0,0,2.66-3.04,6.24,0L71,25.52l-0.66,11.42l-0.53,15.8l0.8,7.17l0.53,1.99l0.66,1.19l2.26,0.53v0.8
		c0,0-2.52,2.12-6.24-1.86l-2.26-6.24l-0.27-4.65l-0.4-4.38l0.27-3.98l0.27-2.26l0.4-6.64l0.53-4.51v-1.33l-0.93,3.58l-1.99,6.77
		l-1.33,6.11l-2.99,11.15l-2.99,4.65c0,0-4.12,4.65-8.5-0.93c0,0-2.12-6.9-2.12-8.36s-0.53-15-0.53-15l0.13-4.51l-0.27-1.46
		l-1.19,3.32l-3.19,11.95l-3.45,8.5l-5.04,6.77c0,0-5.04,5.04-10.89,4.51l-6.11-1.73l-4.12-3.58l-2.39-3.98c0,0-1.73-6.51,4.38-9.43
		v-1.73c0,0-4.38,2.39-3.05,7.17s2.12,5.84,2.12,5.84s5.18,7.04,15,2.92c0,0,5.97,0.83,13.14-18.97c0,0,4.65-17.01,4.25-20.06
		L44.18,21.14z"/>
	<path class="st0" d="M84.27,24.73c0,0-7.83,2.26-2.79,6.9c5.04,4.65,9.29-5.18,4.65-6.11L84.27,24.73z"/>
	<path class="st0" d="M84.96,42.36c0,0-2.48-3.4-5.17-0.23L78.7,56.99c0,0,0.53,5.31,4.25,6.37c0,0,2.39,0.66,3.85-0.93
		c0,0,0.27-1.86-0.53-1.46l-1.31,0.93c0,0-2.24,0.53-2.19-0.13c0.05-0.66-0.58-3.58,0-4.38v-3.32l0.58-3.45c0,0,0.31-7.43,1.61-6.77
		V42.36z"/>
	<path class="st0" d="M99.54,40.78c0,0-4.91-0.27-5.58,8.18c0,0-1.59,4.08,7.04,6.57c0,0,8.36,2.8,2.12,7.97
		c0,0-4.78,2.25-9.82,0.66c0,0-2.26-1.19-3.32-1.86c0,0-1.19-1.59,0-3.72c0,0,1.73-0.27,1.73,0.8c0,0-0.83,2.93,2.79,4.12
		c0,0,5.84,0.53,6.64-2.93c0,0,1.33-3.05-4.78-5.58c0,0-6.37-1.46-6.9-7.83c0,0,0.51-5.15,5.31-8.63c0,0,3.32-0.8,5.71,0.8
		l3.58,3.03c0,0,2.39,2.81,0.8,7.33c0,0-2.39,1.99-3.58-0.4v-5.18c0,0,0.16-1.19-1.06-3.33L99.54,40.78z"/>
	<path class="st0" d="M114.28,30.04c0,0,3.19-1.86,4.78,0.53l-2.39,11.79c0.4,0.69,0.4,0.69,0.4,0.69l4.78,0.8h0.66
		c0,0,1.59,1.33-5.71,1.99c0,0-1.99,0.27-1.73,13.81c0,0,0.55,4.78,3.39,2.92l2.18-1.19c0,0,1.73,0.81,0.66,2.13
		c0,0-5.18,3.31-8.89-0.67l-1.46-2.39l-0.53-5.18c0,0,0.13-6.9,0.8-8.89l-1.46-1.33l-0.53-0.66l0.66-0.8l2.66-1.22l1.46-9.49
		L114.28,30.04z"/>
	<path class="st0" d="M137.85,59.51c0,0,0.4,2.26-0.67,3.05c-1.08,0.8-3.76,1.71-7.13,0.93c0,0-2.02-1.73-2.02-6.64l0.4-0.8
		c0,0,5.24,3.05,10.22-3.92c0,0,3.76-5.03,1.08-9.78c0,0-3.23-3.16-5.78-4.02c-2.55-0.86-2.96,0-2.96,0s-6.38,4.21-7.2,12.53
		c-0.31,3.08,0.15,6.71,1.96,10.91c0,0,3.76,4.85,10.08,3.02c0,0,5.24-1.96,4.44-6.48C140.27,58.32,139.46,56.72,137.85,59.51z
		 M133.72,42.87c5.34,0,1.42,8.85-2.5,8.85C125.88,51.72,129.79,42.87,133.72,42.87z"/>
	<path class="st0" d="M146.67,37.95c0,0,1.99-3.13,3.19,0.38l-0.8,4.02c0,0,0.4,3.65,3.05,0.51c2.66-3.14,4.65,2.3,4.65,2.3
		l-2.52,6.36c0,0-1.59,4.93-0.13,10.37c0,0,1.06,0.93,2.66,0c1.59-0.93,0,1.6,0,1.6s-2.61,1.86-4.69,0s-2.21-5.85-2.21-5.85
		l0.13-6.12l0.93-5.43c0,0-2.84-0.94-3.19,0.97c-0.53,2.88-0.53,2.88-0.53,2.88l-1.46,4.65c0,0-1.19,7.44-1.19,8.9
		c0,1.46-1.06,3.12-2.12,0.83c0,0,0.53-6.41,1.33-9.06l1.06-3.12l0.53-2.19l0.27-2.66c0,0,0.4-2.28,0.13-6.52l0.27-2.83H146.67z"/>
</g>
</svg>
