<svg id="Layer_2" data-name="Layer 2" xmlns="http://www.w3.org/2000/svg" xmlns:xlink="http://www.w3.org/1999/xlink" viewBox="0 0 146.39 33.62"><defs><style>.cls-1{fill:#e4e4ea;}.cls-2{fill:#d62881;stroke:#d9007c;stroke-miterlimit:10;stroke-width:0.25px;}</style></defs><image width="608" height="197" transform="translate(67.64) scale(0.13 0.17)" xlink:href="L%20VER.png"/><path class="cls-1" d="M91.07,34.13V32.64s-1.87-3-8.22,2.36S72.5,49.28,72.5,49.28C64.74,56.35,70.87,46,70.87,46c2.6-2.74,1.3-3.24,1.3-3.24l-2.74.05C60.05,41,55,50,55,50c-11.4,4.33-8.08.58-8.08.58a26.93,26.93,0,0,1,4.76-2.16c2.31-.72-.58-1.88-.58-1.88l-2.74.29C53,44,52.83,44.66,52.83,44.66l.87.73s4.47-.87,3-2.67-6.06,0-6.06,0c-8.22,2.38-5.34,6-5.34,6-4.62,2.3-2.45,3.75-3.17,4.18s-8.1-6.64-8.1-6.64v-.72l7.66-2.81s11.11-4.12,3.9-8.44-21.5,1.29-21.5,1.29c-5.92,2.6-3.61,4.48-3.61,4.48,3.32,1.44,4.62-.87,4.62-.87-1,0-.29-1-.29-1L31.05,36,38,35c6.93-1,6.21,2.31,6.21,2.31C38,43.08,32.49,42.64,32.49,42.64l4-5.33c1.79-2.38-2.17-1.59-2.17-1.59S22.82,47.55,20.07,51.45s3.33,1.73,3.33,1.73l5.77-6.93s4.91,4.62,8.22,7.65,6.21-.29,6.21-.29c2.89,2.74,11.83-1.06,11.83-1.06l.14.34c1.73,4.18,8.95-1.15,8.95-1.15C66,56.93,73,52.6,73,52.6c1.37,2.59,7.64,1,7.64,1s1.3.15,3.47-1.73.14-2.74.14-2.74c-9.81,6.35-7.36-.29-7.36-.29A52.7,52.7,0,0,0,91.07,34.13ZM77.24,45.47l.15-.21v-.09a2.21,2.21,0,0,1,.37-1,2.66,2.66,0,0,1,.84-1.55l.33-.38a2.68,2.68,0,0,1,.82-1.12,2.05,2.05,0,0,1,.2-.35,15.31,15.31,0,0,1,1.14-1.51,4.46,4.46,0,0,1,1-.64l.08,0c.82-.68,1.68-1.32,2.48-2,.4-.43.81-.84,1.25-1.23.07-.09.15-.17.23-.26a1.07,1.07,0,0,0,.14-.16l.08-.06a10.36,10.36,0,0,1,.73-.75.34.34,0,0,1,.29-.12c.54-.31,1.27-.41,1.88-.69.06,0,.16,0,.19.05.31,1-.24,1.53-.9,2a4.13,4.13,0,0,1-1,1.06,14.74,14.74,0,0,1-3.46,4c-.8.72-1.66,1.34-2.5,2S80,43.79,79.1,44.38a6.28,6.28,0,0,1-.64.48c-.32.38-.66.74-1,1.07S77.08,45.72,77.24,45.47Zm-12,2.83a.13.13,0,0,1-.12,0q-.36.31-.75.6c-.76.57-1.57,1.07-2.35,1.61s-3.46,2-2.49,1.7c.21-.06.74,0-1.32-.18-.14,0-.79-.34-.74-.48s-.1-.13-.09-.18c.07-.39.14-.78.23-1.16,0-.11.41-.58.49-.4a4.26,4.26,0,0,1,1.26-1.42c.19-.14.39-.26.59-.38a1.13,1.13,0,0,1,.09-.15A8.39,8.39,0,0,1,62.83,46a1,1,0,0,1,.16-.23,4.64,4.64,0,0,1,2.27-1.17h.07s0,0,0,0a2.8,2.8,0,0,1,.31-.09,1.31,1.31,0,0,1,.48-.12,4.17,4.17,0,0,1,.8-.09c.14,0,.62.21.55.36,0,0-.45-.1-.42-.1l0-.1c0-.1.26,0,.39.2C68.55,46.55,67,47.69,65.27,48.3Z" transform="translate(-19.35 -26.68)"/><path class="cls-2" d="M105.67,34.76s5.41-7.93,10.83,0-10.83,21.5-10.83,21.5-15.6-13.44-11.55-21.5c0,0,5.61-7.71,10.86-.82Z" transform="translate(-19.35 -26.68)"/></svg>