<svg width="25" height="26" viewBox="0 0 25 26" fill="none" xmlns="http://www.w3.org/2000/svg">
<g clip-path="url(#clip0_214_57)">
<path d="M12.5 0.673828C5.8725 0.673828 0.5 6.04633 0.5 12.6738C0.5 19.3013 5.8725 24.6738 12.5 24.6738C19.1275 24.6738 24.5 19.3013 24.5 12.6738C24.5 6.04633 19.1275 0.673828 12.5 0.673828ZM17.3812 10.5038C17.3862 10.6063 17.3875 10.7088 17.3875 10.8088C17.3875 13.9338 15.0112 17.5351 10.6637 17.5351C9.37912 17.5372 8.12121 17.1683 7.04125 16.4726C7.225 16.4951 7.41375 16.5038 7.605 16.5038C8.7125 16.5038 9.73125 16.1276 10.54 15.4926C10.0471 15.4829 9.56959 15.3197 9.17389 15.0257C8.77819 14.7317 8.48406 14.3216 8.3325 13.8526C8.68644 13.9199 9.05106 13.9058 9.39875 13.8113C8.86381 13.7032 8.38275 13.4133 8.03713 12.9909C7.69152 12.5685 7.50263 12.0396 7.5025 11.4938V11.4651C7.82125 11.6413 8.18625 11.7488 8.57375 11.7613C8.07225 11.4275 7.71723 10.9147 7.5813 10.3277C7.44538 9.74082 7.53881 9.12414 7.8425 8.60383C8.43619 9.33383 9.17657 9.93101 10.0157 10.3567C10.8548 10.7824 11.774 11.0272 12.7137 11.0751C12.5943 10.568 12.6457 10.0356 12.86 9.56071C13.0743 9.08583 13.4395 8.69506 13.8988 8.44916C14.3581 8.20325 14.8858 8.11598 15.3999 8.20092C15.9139 8.28585 16.3855 8.53823 16.7412 8.91883C17.2702 8.81417 17.7775 8.62014 18.2412 8.34508C18.0649 8.89275 17.6958 9.3578 17.2025 9.65383C17.6711 9.59739 18.1286 9.47142 18.56 9.28008C18.2431 9.75494 17.8439 10.1694 17.3812 10.5038Z" fill="white"/>
</g>
<defs>
<clipPath id="clip0_214_57">
<rect width="25" height="25" fill="white" transform="translate(0 0.173828)"/>
</clipPath>
</defs>
</svg>
